<svg width="32" height="32" viewBox="0 0 32 32" fill="none" xmlns="http://www.w3.org/2000/svg">
<path d="m22.055 3.98858 7.34-1.97c0.34-0.1 0.66 0.22 0.57 0.57l-1.97 7.34c-0.09 0.35002-0.52 0.46002-0.77 0.21002l-1.2808-1.28081-1.3699 1.36981-2.6684 15.7685-9.5855-0.0178-3.32548 3.4902c-0.7 0.7-1.84 0.7-2.55 0-0.36774-0.3677-0.54228-0.8569-0.52364-1.3414-0.53697 0.0204-1.08059-0.1744-1.49052-0.5843-0.41997-0.42-0.61413-0.9803-0.58246-1.53-0.47854 0.0137-0.96013-0.1611-1.3233-0.5242-0.7-0.71-0.7-1.85 0-2.55l3.35035-3.2602 17.24035-13.64904-1.2707-1.27078c-0.25-0.25-0.13-0.68 0.21-0.77m1.0607 2.04078-17.24035 13.64904c0.17832-0.096 0.37578-0.1572 0.57965-0.1798l3.6831-0.4916m14.4362-8.7794-11.6509 11.651-0.4885 3.6599c-0.017 0.153-0.0557 0.3007-0.1145 0.4398l9.5855 0.0178m3.3312-17.84542-1.4142-1.41421-18.73816 18.74233c-0.33652 0.3929-0.31881 0.9849 0.05312 1.3569 0.34689 0.3469 0.88524 0.3856 1.27491 0.1162" fill="#212121"/>
</svg>
