<svg width="32" height="32" viewBox="0 0 32 32" fill="none" xmlns="http://www.w3.org/2000/svg">
<path d="m22.055 3.98858 7.34-1.97c0.34-0.1 0.66 0.22 0.57 0.57l-1.97 7.34c-0.09 0.35002-0.52 0.46002-0.77 0.21002l-1.2808-1.28081-1.3699 1.36981c0.7194 0.9148 1.2905 1.9328 1.6985 3.0437 0.7482 2.0043 0.9003 4.2038 0.3963 6.3734-0.3415 1.4702-0.0431 2.9759 0.7994 4.1797l0.1779-0.178c0.1953-0.1952 0.5119-0.1952 0.7072 0 0.1952 0.1953 0.1952 0.5119 0 0.7072l-0.2355 0.2354c1.0942 1.1543 1.0755 2.9751-0.056 4.1066-1.1315 1.1316-2.9524 1.1502-4.1067 0.0561l-0.1018 0.1019c-0.1953 0.1952-0.5119 0.1952-0.7072 0-0.1952-0.1953-0.1952-0.5119 0-0.7072l0.1276-0.1275c-0.2785-0.3278-0.5359-0.6689-0.7719-1.0217l-11.0154-0.0205-2.49178 2.4918c-0.7 0.7-1.84 0.7-2.55 0-0.36774-0.3677-0.54228-0.8569-0.52364-1.3414-0.53697 0.0204-1.08059-0.1744-1.49052-0.5843-0.41997-0.42-0.61413-0.9803-0.58246-1.53-0.47854 0.0137-0.96013-0.1611-1.3233-0.5242-0.7-0.71-0.7-1.85 0-2.55l2.37934-2.3794-0.38305-11.41642c-0.18138-0.13524-0.35927-0.27644-0.53342-0.42355l-0.13432 0.13432c-0.19526 0.19527-0.51184 0.19527-0.7071 0-0.19527-0.19526-0.19527-0.51184 0-0.7071l0.10645-0.10645c-1.11289-1.1508-1.10773-3.00087 0.03974-4.13324 1.13912-1.12414 2.97217-1.13421 4.12373-0.03024l0.23008-0.23007c0.19526-0.19527 0.51184-0.19527 0.7071 0 0.19527 0.19526 0.19527 0.51184 0 0.7071l-0.17162 0.17163c1.19925 0.83524 2.69347 1.12604 4.15257 0.7803l0.0057-0.00136c1.8529-0.42758 3.7421-0.3754 5.5123 0.11906 1.4217 0.39204 2.7446 1.06672 3.8956 1.97384l1.3676-1.36766-1.2707-1.27078c-0.25-0.25-0.13-0.68 0.21-0.77m-16.05384 1.30315c-0.37287-0.32664-0.94665-0.31378-1.3037 0.03857-0.34911 0.34452-0.3666 0.92085-0.02973 1.29486l1.33343-1.33343m-0.59297 2.00718c2.18037 1.7746 5.03771 2.44463 7.81971 1.79576l0.0023-5.3E-4c1.2026-0.27753 2.4209-0.24351 3.5597 0.0701l0.5003-1.82152c-1.4411-0.39823-2.981-0.43994-4.4976-0.09042-2.1345 0.50485-4.33561 0.02067-6.04105-1.29675l-1.34336 1.34336m18.98801 6.66429-1.7637 0.6475 3E-3 0.0079c0.4742 1.2977 0.5784 2.7253 0.2429 4.1389-0.6044 2.5935-0.0626 5.2523 1.4518 7.367 0.0541 0.0476 0.0978 0.1067 0.1273 0.1735 0.0765 0.1017 0.1553 0.2021 0.2364 0.301l1.3446-1.3446c-1.324-1.7087-1.8152-3.9193-1.3176-6.0621 0.4157-1.7892 0.2882-3.5888-0.3227-5.2237l-2E-3 -0.0054m-8.1383-2.871c-0.8202-0.2257-1.7007-0.2515-2.5769-0.0495-2.821 0.6576-5.71328 0.1994-8.13638-1.2213l0.33073 9.857c0.17832-0.096 0.37578-0.1572 0.57965-0.1798l3.6831-0.4916 7.3807-7.3807c-0.3928-0.2301-0.8167-0.4101-1.2609-0.5341m4.4864 4.2054c-0.1067-0.2959-0.2389-0.5778-0.3952-0.8448l-7.4257 7.4258-0.4885 3.6599c-0.017 0.153-0.0557 0.3007-0.1145 0.4398l9.5855 0.0178c-1.2258-2.3287-1.5932-5.0432-0.9748-7.6947l1e-3 -0.0041c0.2157-0.9075 0.1812-1.8196-0.069-2.6699l-0.1188-0.3298m5.9036 11.9838c0.3503-0.3503 0.3685-0.9051 0.0544-1.2766l-1.331 1.3311c0.3715 0.314 0.9262 0.2959 1.2766-0.0545m-1.4108-19.13072-1.4142-1.41421-18.73816 18.74233c-0.33652 0.3929-0.31881 0.9849 0.05312 1.3569 0.34689 0.3469 0.88524 0.3856 1.27491 0.1162" fill="#212121"/>
</svg>
