<svg width="32" height="32" viewBox="0 0 32 32" fill="none" xmlns="http://www.w3.org/2000/svg">
<path d="M2.525 22.9386L5.505 19.9586C5.755 19.6986 6.095 19.5386 6.455 19.4986L11.775 18.7886L8.99492 22.6507L5.075 25.4886C4.365 26.1886 3.225 26.1886 2.525 25.4886C1.825 24.7786 1.825 23.6386 2.525 22.9386Z" fill="#635994"/>
<path d="M8.99492 29.4685L11.9749 26.4885C12.2349 26.2285 12.3949 25.8985 12.4349 25.5385L13.1449 20.2185L9.28867 23.0539L6.44492 26.9185C5.74492 27.6285 5.74492 28.7685 6.44492 29.4685C7.15492 30.1685 8.29492 30.1685 8.99492 29.4685Z" fill="#635994"/>
<path d="M23.8229 6.73645L25.2371 6.84396V8.15066L6.55208 26.8357C6.16155 27.2262 5.52839 27.2262 5.13786 26.8357C4.74734 26.4451 4.74734 25.812 5.13786 25.4214L23.8229 6.73645Z" fill="#F3AD61"/>
<path d="M29.395 2.01858L22.055 3.98858C21.715 4.07858 21.595 4.50858 21.845 4.75858L27.225 10.1386C27.475 10.3886 27.905 10.2786 27.995 9.92858L29.965 2.58858C30.055 2.23858 29.735 1.91858 29.395 2.01858Z" fill="#D3D3D3"/>
</svg>
